<svg xmlns="http://www.w3.org/2000/svg" width="800" height="600" viewBox="0 0 800 600">
  <style>
    .component { fill: #2c3e50; stroke: #34495e; stroke-width: 2; rx: 5; ry: 5 }
    .queue { fill: #e74c3c; stroke: #c0392b }
    .serverless { fill: #3498db; stroke: #2980b9 }
    .database { fill: #27ae60; stroke: #219653 }
    .text { font-family: Arial; font-size: 14px; fill: white; text-anchor: middle }
    .line { stroke: #7f8c8d; stroke-width: 2; marker-end: url(#arrow) }
    .dashed { stroke-dasharray: 5,5 }
  </style>
  
  <defs>
    <marker id="arrow" markerWidth="10" markerHeight="10" refX="9" refY="3" orient="auto">
      <path d="M0,0 L0,6 L9,3 z" fill="#7f8c8d"/>
    </marker>
  </defs>
  
  <!-- Services -->
  <rect class="component" x="100" y="50" width="150" height="60"/>
  <text class="text" x="175" y="85">Order Service</text>
  
  <rect class="component" x="100" y="200" width="150" height="60"/>
  <text class="text" x="175" y="235">Inventory Service</text>
  
  <rect class="component" x="100" y="350" width="150" height="60"/>
  <text class="text" x="175" y="385">Shipping Service</text>
  
  <!-- Kafka -->
  <rect class="queue" x="350" y="150" width="150" height="60"/>
  <text class="text" x="425" y="185">Kafka Cluster</text>
  
  <!-- AWS Services -->
  <rect class="serverless" x="550" y="50" width="150" height="60"/>
  <text class="text" x="625" y="85">Lambda (C#)</text>
  
  <rect class="serverless" x="550" y="150" width="150" height="60"/>
  <text class="text" x="625" y="185">SQS</text>
  
  <rect class="serverless" x="550" y="250" width="150" height="60"/>
  <text class="text" x="625" y="285">SES</text>
  
  <rect class="database" x="550" y="350" width="150" height="60"/>
  <text class="text" x="625" y="385">DynamoDB</text>
  
  <!-- Connections -->
  <line class="line" x1="250" y1="80" x2="350" y2="150"/>
  <line class="line" x1="250" y1="230" x2="350" y2="180"/>
  <line class="line" x1="250" y1="380" x2="350" y2="210"/>
  
  <line class="line" x1="500" y1="150" x2="550" y2="80"/>
  <line class="line" x1="500" y1="170" x2="550" y2="170"/>
  <line class="line" x1="500" y1="190" x2="550" y2="260"/>
  
  <line class="line dashed" x1="625" y1="110" x2="625" y2="140"/>
  <line class="line" x1="625" y1="200" x2="625" y2="240"/>
  <line class="line" x1="625" y1="310" x2="625" y2="340"/>
  
  <!-- Legends -->
  <rect x="50" y="450" width="20" height="20" fill="#2c3e50"/>
  <text x="80" y="465" font-family="Arial" font-size="12">.NET Microservice</text>
  
  <rect x="250" y="450" width="20" height="20" fill="#e74c3c"/>
  <text x="280" y="465" font-family="Arial" font-size="12">Kafka (Event Bus)</text>
  
  <rect x="450" y="450" width="20" height="20" fill="#3498db"/>
  <text x="480" y="465" font-family="Arial" font-size="12">AWS Serverless</text>
</svg>